<?xml version="1.0" encoding="UTF-8" standalone="no"?>
<!DOCTYPE svg PUBLIC "-//W3C//DTD SVG 1.1//EN"
 "http://www.w3.org/Graphics/SVG/1.1/DTD/svg11.dtd">
<!-- Generated by graphviz version 2.42.3 (20191010.1750)
 -->
<!-- Title: %3 Pages: 1 -->
<svg width="860pt" height="396pt"
 viewBox="0.00 0.00 859.69 396.00" xmlns="http://www.w3.org/2000/svg" xmlns:xlink="http://www.w3.org/1999/xlink">
<g id="graph0" class="graph" transform="scale(1 1) rotate(0) translate(4 392)">
<title>%3</title>
<polygon fill="white" stroke="transparent" points="-4,4 -4,-392 855.69,-392 855.69,4 -4,4"/>
<g id="clust1" class="cluster">
<title>cluster_0</title>
<polygon fill="lightgrey" stroke="lightgrey" points="238.69,-198 238.69,-380 649.54,-380 649.54,-198 238.69,-198"/>
<text text-anchor="middle" x="444.11" y="-364.8" font-family="Times,serif" font-size="14.00">User Session</text>
</g>
<g id="clust2" class="cluster">
<title>cluster_1</title>
<polygon fill="lightgrey" stroke="lightgrey" points="238.69,-8 238.69,-190 649.54,-190 649.54,-8 238.69,-8"/>
<text text-anchor="middle" x="444.11" y="-174.8" font-family="Times,serif" font-size="14.00">User Session</text>
</g>
<!-- BS -->
<g id="node1" class="node">
<title>BS</title>
<polygon fill="none" stroke="black" points="92.39,-201 0.2,-201 0.2,-165 92.39,-165 92.39,-201"/>
<text text-anchor="middle" x="46.29" y="-178.8" font-family="Times,serif" font-size="14.00">Bokeh Server</text>
</g>
<!-- App -->
<g id="node2" class="node">
<title>App</title>
<polygon fill="none" stroke="black" points="210.73,-201 128.54,-201 128.54,-165 210.73,-165 210.73,-201"/>
<text text-anchor="middle" x="169.64" y="-178.8" font-family="Times,serif" font-size="14.00">Application</text>
</g>
<!-- BS&#45;&gt;App -->
<g id="edge15" class="edge">
<title>BS&#45;&gt;App</title>
<path fill="none" stroke="black" d="M92.48,-183C100.81,-183 109.57,-183 118.05,-183"/>
<polygon fill="black" stroke="black" points="118.22,-186.5 128.22,-183 118.22,-179.5 118.22,-186.5"/>
</g>
<!-- A0 -->
<g id="node3" class="node">
<title>A0</title>
<polygon fill="white" stroke="white" points="348.6,-296 246.72,-296 246.72,-260 348.6,-260 348.6,-296"/>
<text text-anchor="middle" x="297.66" y="-273.8" font-family="Times,serif" font-size="14.00">Python Objects</text>
</g>
<!-- App&#45;&gt;A0 -->
<g id="edge16" class="edge">
<title>App&#45;&gt;A0</title>
<path fill="none" stroke="black" d="M194.64,-201.09C214.52,-216.08 242.95,-237.51 264.75,-253.95"/>
<polygon fill="black" stroke="black" points="262.65,-256.75 272.75,-259.97 266.87,-251.16 262.65,-256.75"/>
</g>
<!-- A1 -->
<g id="node9" class="node">
<title>A1</title>
<polygon fill="white" stroke="white" points="348.6,-106 246.72,-106 246.72,-70 348.6,-70 348.6,-106"/>
<text text-anchor="middle" x="297.66" y="-83.8" font-family="Times,serif" font-size="14.00">Python Objects</text>
</g>
<!-- App&#45;&gt;A1 -->
<g id="edge17" class="edge">
<title>App&#45;&gt;A1</title>
<path fill="none" stroke="black" d="M194.64,-164.91C214.52,-149.92 242.95,-128.49 264.75,-112.05"/>
<polygon fill="black" stroke="black" points="266.87,-114.84 272.75,-106.03 262.65,-109.25 266.87,-114.84"/>
</g>
<!-- W10 -->
<g id="node4" class="node">
<title>W10</title>
<ellipse fill="white" stroke="white" cx="434.79" cy="-224" rx="50.33" ry="18"/>
<text text-anchor="middle" x="434.79" y="-219.8" font-family="Times,serif" font-size="14.00">WebSocket</text>
</g>
<!-- A0&#45;&gt;W10 -->
<g id="edge4" class="edge">
<title>A0&#45;&gt;W10</title>
<path fill="none" stroke="black" d="M344.03,-259.87C359.25,-253.79 376.17,-247.03 391.17,-241.03"/>
<polygon fill="black" stroke="black" points="392.73,-244.18 400.72,-237.22 390.13,-237.68 392.73,-244.18"/>
</g>
<!-- B0 -->
<g id="node5" class="node">
<title>B0</title>
<polygon fill="white" stroke="white" points="461.79,-296 407.79,-296 407.79,-260 461.79,-260 461.79,-296"/>
<text text-anchor="middle" x="434.79" y="-273.8" font-family="Times,serif" font-size="14.00">JSON</text>
</g>
<!-- A0&#45;&gt;B0 -->
<g id="edge1" class="edge">
<title>A0&#45;&gt;B0</title>
<path fill="none" stroke="black" d="M348.98,-278C365.04,-278 382.5,-278 397.37,-278"/>
<polygon fill="black" stroke="black" points="397.69,-281.5 407.69,-278 397.69,-274.5 397.69,-281.5"/>
</g>
<!-- W20 -->
<g id="node6" class="node">
<title>W20</title>
<ellipse fill="white" stroke="white" cx="434.79" cy="-332" rx="50.33" ry="18"/>
<text text-anchor="middle" x="434.79" y="-327.8" font-family="Times,serif" font-size="14.00">WebSocket</text>
</g>
<!-- A0&#45;&gt;W20 -->
<g id="edge6" class="edge">
<title>A0&#45;&gt;W20</title>
<path fill="none" stroke="black" d="M353.34,-299.85C369.39,-306.27 386.45,-313.08 400.72,-318.78"/>
<polygon fill="black" stroke="black" points="354.62,-296.59 344.03,-296.13 352.02,-303.09 354.62,-296.59"/>
</g>
<!-- C0 -->
<g id="node7" class="node">
<title>C0</title>
<polygon fill="white" stroke="white" points="641.33,-296 521.17,-296 521.17,-260 641.33,-260 641.33,-296"/>
<text text-anchor="middle" x="581.25" y="-273.8" font-family="Times,serif" font-size="14.00">JavaScript Objects</text>
</g>
<!-- W10&#45;&gt;C0 -->
<g id="edge5" class="edge">
<title>W10&#45;&gt;C0</title>
<path fill="none" stroke="black" d="M470.39,-236.93C485.96,-242.75 504.76,-249.78 522.37,-256.36"/>
<polygon fill="black" stroke="black" points="521.41,-259.74 532.01,-259.97 523.86,-253.19 521.41,-259.74"/>
</g>
<!-- B0&#45;&gt;C0 -->
<g id="edge2" class="edge">
<title>B0&#45;&gt;C0</title>
<path fill="none" stroke="black" d="M461.95,-278C475.75,-278 493.4,-278 510.83,-278"/>
<polygon fill="black" stroke="black" points="511.03,-281.5 521.03,-278 511.03,-274.5 511.03,-281.5"/>
</g>
<!-- W20&#45;&gt;C0 -->
<g id="edge7" class="edge">
<title>W20&#45;&gt;C0</title>
<path fill="none" stroke="black" d="M479.81,-315.55C496.31,-309.38 515.14,-302.34 532.01,-296.03"/>
<polygon fill="black" stroke="black" points="478.54,-312.29 470.39,-319.07 480.99,-318.84 478.54,-312.29"/>
</g>
<!-- D0 -->
<g id="node8" class="node">
<title>D0</title>
<polygon fill="none" stroke="black" points="851.77,-296 677.47,-296 677.47,-260 851.77,-260 851.77,-296"/>
<text text-anchor="middle" x="764.62" y="-273.8" font-family="Times,serif" font-size="14.00">HTML Canvas/SVG Output</text>
</g>
<!-- C0&#45;&gt;D0 -->
<g id="edge3" class="edge">
<title>C0&#45;&gt;D0</title>
<path fill="none" stroke="black" d="M641.39,-278C649.63,-278 658.28,-278 667,-278"/>
<polygon fill="black" stroke="black" points="667.25,-281.5 677.25,-278 667.25,-274.5 667.25,-281.5"/>
</g>
<!-- W11 -->
<g id="node10" class="node">
<title>W11</title>
<ellipse fill="white" stroke="white" cx="434.79" cy="-34" rx="50.33" ry="18"/>
<text text-anchor="middle" x="434.79" y="-29.8" font-family="Times,serif" font-size="14.00">WebSocket</text>
</g>
<!-- A1&#45;&gt;W11 -->
<g id="edge11" class="edge">
<title>A1&#45;&gt;W11</title>
<path fill="none" stroke="black" d="M344.03,-69.87C359.25,-63.79 376.17,-57.03 391.17,-51.03"/>
<polygon fill="black" stroke="black" points="392.73,-54.18 400.72,-47.22 390.13,-47.68 392.73,-54.18"/>
</g>
<!-- B1 -->
<g id="node11" class="node">
<title>B1</title>
<polygon fill="white" stroke="white" points="461.79,-106 407.79,-106 407.79,-70 461.79,-70 461.79,-106"/>
<text text-anchor="middle" x="434.79" y="-83.8" font-family="Times,serif" font-size="14.00">JSON</text>
</g>
<!-- A1&#45;&gt;B1 -->
<g id="edge8" class="edge">
<title>A1&#45;&gt;B1</title>
<path fill="none" stroke="black" d="M348.98,-88C365.04,-88 382.5,-88 397.37,-88"/>
<polygon fill="black" stroke="black" points="397.69,-91.5 407.69,-88 397.69,-84.5 397.69,-91.5"/>
</g>
<!-- W21 -->
<g id="node12" class="node">
<title>W21</title>
<ellipse fill="white" stroke="white" cx="434.79" cy="-142" rx="50.33" ry="18"/>
<text text-anchor="middle" x="434.79" y="-137.8" font-family="Times,serif" font-size="14.00">WebSocket</text>
</g>
<!-- A1&#45;&gt;W21 -->
<g id="edge13" class="edge">
<title>A1&#45;&gt;W21</title>
<path fill="none" stroke="black" d="M353.34,-109.85C369.39,-116.27 386.45,-123.08 400.72,-128.78"/>
<polygon fill="black" stroke="black" points="354.62,-106.59 344.03,-106.13 352.02,-113.09 354.62,-106.59"/>
</g>
<!-- C1 -->
<g id="node13" class="node">
<title>C1</title>
<polygon fill="white" stroke="white" points="641.33,-106 521.17,-106 521.17,-70 641.33,-70 641.33,-106"/>
<text text-anchor="middle" x="581.25" y="-83.8" font-family="Times,serif" font-size="14.00">JavaScript Objects</text>
</g>
<!-- W11&#45;&gt;C1 -->
<g id="edge12" class="edge">
<title>W11&#45;&gt;C1</title>
<path fill="none" stroke="black" d="M470.39,-46.93C485.96,-52.75 504.76,-59.78 522.37,-66.36"/>
<polygon fill="black" stroke="black" points="521.41,-69.74 532.01,-69.97 523.86,-63.19 521.41,-69.74"/>
</g>
<!-- B1&#45;&gt;C1 -->
<g id="edge9" class="edge">
<title>B1&#45;&gt;C1</title>
<path fill="none" stroke="black" d="M461.95,-88C475.75,-88 493.4,-88 510.83,-88"/>
<polygon fill="black" stroke="black" points="511.03,-91.5 521.03,-88 511.03,-84.5 511.03,-91.5"/>
</g>
<!-- W21&#45;&gt;C1 -->
<g id="edge14" class="edge">
<title>W21&#45;&gt;C1</title>
<path fill="none" stroke="black" d="M479.81,-125.55C496.31,-119.38 515.14,-112.34 532.01,-106.03"/>
<polygon fill="black" stroke="black" points="478.54,-122.29 470.39,-129.07 480.99,-128.84 478.54,-122.29"/>
</g>
<!-- D1 -->
<g id="node14" class="node">
<title>D1</title>
<polygon fill="none" stroke="black" points="851.77,-106 677.47,-106 677.47,-70 851.77,-70 851.77,-106"/>
<text text-anchor="middle" x="764.62" y="-83.8" font-family="Times,serif" font-size="14.00">HTML Canvas/SVG Output</text>
</g>
<!-- C1&#45;&gt;D1 -->
<g id="edge10" class="edge">
<title>C1&#45;&gt;D1</title>
<path fill="none" stroke="black" d="M641.39,-88C649.63,-88 658.28,-88 667,-88"/>
<polygon fill="black" stroke="black" points="667.25,-91.5 677.25,-88 667.25,-84.5 667.25,-91.5"/>
</g>
</g>
</svg>
