<?xml version="1.0" encoding="UTF-8" standalone="no"?>
<!DOCTYPE svg PUBLIC "-//W3C//DTD SVG 1.1//EN"
 "http://www.w3.org/Graphics/SVG/1.1/DTD/svg11.dtd">
<!-- Generated by graphviz version 2.42.3 (20191010.1750)
 -->
<!-- Title: %3 Pages: 1 -->
<svg width="538pt" height="98pt"
 viewBox="0.00 0.00 538.47 98.00" xmlns="http://www.w3.org/2000/svg" xmlns:xlink="http://www.w3.org/1999/xlink">
<g id="graph0" class="graph" transform="scale(1 1) rotate(0) translate(4 94)">
<title>%3</title>
<polygon fill="white" stroke="transparent" points="-4,4 -4,-94 534.47,-94 534.47,4 -4,4"/>
<g id="clust1" class="cluster">
<title>cluster_0</title>
<polygon fill="lightgrey" stroke="lightgrey" points="8,-8 8,-82 125.94,-82 125.94,-8 8,-8"/>
<text text-anchor="middle" x="66.97" y="-66.8" font-family="Times,serif" font-size="14.00">Bokeh</text>
</g>
<g id="clust2" class="cluster">
<title>cluster_1</title>
<polygon fill="lightgrey" stroke="lightgrey" points="235.94,-8 235.94,-82 372.52,-82 372.52,-8 235.94,-8"/>
<text text-anchor="middle" x="304.23" y="-66.8" font-family="Times,serif" font-size="14.00">BokehJS</text>
</g>
<!-- A -->
<g id="node1" class="node">
<title>A</title>
<polygon fill="white" stroke="white" points="117.91,-52 16.03,-52 16.03,-16 117.91,-16 117.91,-52"/>
<text text-anchor="middle" x="66.97" y="-29.8" font-family="Times,serif" font-size="14.00">Python Objects</text>
</g>
<!-- B -->
<g id="node2" class="node">
<title>B</title>
<polygon fill="none" stroke="black" points="207.94,-52 153.94,-52 153.94,-16 207.94,-16 207.94,-52"/>
<text text-anchor="middle" x="180.94" y="-29.8" font-family="Times,serif" font-size="14.00">JSON</text>
</g>
<!-- A&#45;&gt;B -->
<g id="edge1" class="edge">
<title>A&#45;&gt;B</title>
<path fill="none" stroke="black" d="M118.06,-34C126.64,-34 135.41,-34 143.55,-34"/>
<polygon fill="black" stroke="black" points="143.82,-37.5 153.82,-34 143.82,-30.5 143.82,-37.5"/>
</g>
<!-- C -->
<g id="node3" class="node">
<title>C</title>
<polygon fill="white" stroke="white" points="364.32,-52 244.15,-52 244.15,-16 364.32,-16 364.32,-52"/>
<text text-anchor="middle" x="304.23" y="-29.8" font-family="Times,serif" font-size="14.00">JavaScript Objects</text>
</g>
<!-- B&#45;&gt;C -->
<g id="edge2" class="edge">
<title>B&#45;&gt;C</title>
<path fill="none" stroke="black" d="M207.96,-34C215.73,-34 224.64,-34 233.83,-34"/>
<polygon fill="black" stroke="black" points="233.86,-37.5 243.86,-34 233.86,-30.5 233.86,-37.5"/>
</g>
<!-- D -->
<g id="node4" class="node">
<title>D</title>
<polygon fill="none" stroke="black" points="530.45,-52 400.55,-52 400.55,-16 530.45,-16 530.45,-52"/>
<text text-anchor="middle" x="465.5" y="-29.8" font-family="Times,serif" font-size="14.00">HTML/SVG Output</text>
</g>
<!-- C&#45;&gt;D -->
<g id="edge3" class="edge">
<title>C&#45;&gt;D</title>
<path fill="none" stroke="black" d="M364.54,-34C372.93,-34 381.64,-34 390.27,-34"/>
<polygon fill="black" stroke="black" points="390.34,-37.5 400.34,-34 390.34,-30.5 390.34,-37.5"/>
</g>
</g>
</svg>
